<?xml version="1.0" encoding="UTF-8" standalone="no"?>
<svg
   xmlns:dc="http://purl.org/dc/elements/1.1/"
   xmlns:cc="http://creativecommons.org/ns#"
   xmlns:rdf="http://www.w3.org/1999/02/22-rdf-syntax-ns#"
   xmlns:svg="http://www.w3.org/2000/svg"
   xmlns="http://www.w3.org/2000/svg"
   viewBox="0 0 613.01331 245.89333"
   height="245.89333"
   width="613.01331"
   xml:space="preserve"
   id="svg2"
   version="1.1"><metadata
     id="metadata8"><rdf:RDF><cc:Work
         rdf:about=""><dc:format>image/svg+xml</dc:format><dc:type
           rdf:resource="http://purl.org/dc/dcmitype/StillImage" /></cc:Work></rdf:RDF></metadata><defs
     id="defs6"><clipPath
       id="clipPath20"
       clipPathUnits="userSpaceOnUse"><path
         id="path18"
         d="M 0,0 H 4597.6 V 1844 H 0 Z" /></clipPath></defs><g
     transform="matrix(1.3333333,0,0,-1.3333333,0,245.89333)"
     id="g10"><g
       transform="scale(0.1)"
       id="g12"><g
         id="g14"><g
           clip-path="url(#clipPath20)"
           id="g16"><path
             id="path22"
             style="fill:#1da7e7;fill-opacity:1;fill-rule:nonzero;stroke:none"
             d="M 1347.61,1844.25 V 295.191 c 0,0 0,-56.691 56.69,-56.691 h 1474.02 c 0,0 56.69,0 56.69,56.691 V 1844.25 h -1587.4" /><path
             id="path24"
             style="fill:#ffffff;fill-opacity:1;fill-rule:nonzero;stroke:none"
             d="m 2103.81,1117.77 c 38.57,0 85.36,16.28 85.36,66.06 0,79.95 -106.34,46.16 -106.34,92.63 0,22.31 28.64,26.84 43.96,26.84 24.39,0 47.08,-5.74 47.08,-5.74 v 32.6 c 0,0 -23.54,6.02 -51.06,6.02 -43.66,0 -82.81,-15.39 -82.81,-64.86 0,-74.51 105.5,-49.47 105.5,-91.41 0,-23.53 -28.07,-29.57 -45.37,-29.57 -25.53,0 -58.7,8.75 -58.7,8.75 v -33.79 c 0,0 26.93,-7.53 62.38,-7.53 m 255.09,3.61 -70.9,86.89 66.65,71.51 h -48.21 l -59.56,-67.89 v 135.76 h -40.26 v -226.27 h 40.26 v 81.76 l 59.56,-81.76 z m 46.73,11.46 v 146.94 h -40.28 v -152.67 c 0,-12.66 -1.97,-18.99 -8.79,-26.24 l -23.52,-24.14 c 5.09,-5.72 16.43,-17.2 20.97,-22.02 32.05,31.38 34.6,32.88 34.6,32.88 14.75,14.18 17.02,28.07 17.02,45.25 m 0,214.81 h -40.28 v -40.13 h 40.28 z m 104.93,-229.88 c 27.78,0 52.74,6.34 52.74,6.34 v 27.14 c -12.76,-2.71 -25.53,-5.43 -42.83,-5.43 -24.94,0 -49.63,7.25 -52.17,42.84 h 106.62 c 1.13,63.36 -17.58,94.43 -73.16,94.43 -51.05,0 -76,-32.59 -76,-84.17 0,-60.65 37.99,-81.15 84.8,-81.15 m 20.69,97.44 h -62.95 c 0,21.41 8.51,40.43 31.48,40.43 26.66,0 31.47,-20.22 31.47,-40.43 m 156.19,30.78 v 34.98 c -13.89,0 -31.46,1.21 -58.12,-15.68 -0.3,0 0,14.49 0,14.49 h -35.74 v -158.4 h 40.28 v 114.35 c 14.46,10.86 38.85,10.26 53.58,10.26 m 149.77,-124.61 v 111.33 c 0,36.5 -24.4,49.47 -45.66,49.47 -19.57,0 -40.26,-8.45 -57,-16.58 v 14.18 h -36.29 v -158.4 h 40.27 v 117.36 c 4.24,2.11 22.96,9.06 37.14,9.06 20.41,0 21.26,-15.09 21.26,-23.24 v -103.18 h 40.28" /><path
             id="path26"
             style="fill:#ffffff;fill-opacity:1;fill-rule:nonzero;stroke:none"
             d="m 1602.88,1387.58 -57.57,86.88 0.56,1.82 c 26.1,10.24 39.13,30.76 39.13,57.32 0,47.65 -29.2,65.15 -74.28,65.15 h -70.91 v -211.17 h 40.56 v 79.03 h 24.11 l 47.63,-79.03 z m -60.4,145.41 c 0,-27.16 -12.48,-35.29 -36.6,-35.29 h -25.51 v 70.58 h 25.51 c 24.12,0 36.6,-8.14 36.6,-35.29 m 114.41,12.97 h -40.26 v -158.38 h 40.26 z m 0,67.88 h -40.26 v -39.52 h 40.26 z m 166.61,-226.26 v 111.32 c 0,36.5 -24.38,49.48 -45.65,49.48 -19.57,0 -40.27,-8.45 -57.01,-16.59 v 14.17 h -36.29 v -158.38 h 40.26 v 117.35 c 4.26,2.11 22.98,9.05 37.16,9.05 20.41,0 21.27,-15.08 21.27,-23.23 v -103.17 z m 168.05,134.25 v 26.55 l -62.39,-2.42 c -3.97,0.91 -8.79,2.42 -21.26,2.42 -32.63,0 -62.96,-16.9 -62.96,-52.8 0,-32.88 19.57,-44.04 23.81,-46.15 -5.94,-6.04 -21.83,-16.3 -21.83,-35.91 0,-56.71 100.68,-16.9 100.68,-46.16 0,-13.57 -20.71,-19 -42.82,-19 -21.56,0 -51.63,7.24 -51.63,7.24 v -28.06 c 5.97,-1.5 21,-6.34 57.87,-6.34 41.68,0 77.7,13.89 77.7,52.49 0,38.02 -35.45,40.14 -65.23,40.14 h -11.06 c -16.17,0 -28.65,0.6 -28.65,9.05 0,7.53 6.82,13.87 10.79,16.58 0,0 3.97,-1.5 12.75,-1.5 51.62,0 64.95,31.38 64.95,52.19 0,21.11 -8.52,30.16 -11.91,33.49 9.91,0 21.54,-1.51 31.19,-1.81 m -82.24,-56.43 c -15.59,0 -24.1,6.35 -24.1,28.07 0,21.42 8.51,27.75 24.1,27.75 15.88,0 24.39,-6.33 24.39,-28.05 0,-21.42 -8.51,-27.77 -24.39,-27.77 m 243.71,-77.82 -70.9,86.88 66.64,71.5 h -48.2 l -59.55,-67.87 v 135.75 h -40.27 v -226.26 h 40.27 v 81.76 l 59.55,-81.76 z m 145.39,79.34 c 0,50.38 -29.49,82.66 -78.83,82.66 -50.2,0 -79.41,-32.28 -79.41,-82.66 0,-49.17 28.93,-82.66 79.41,-82.66 45.94,0 78.83,33.49 78.83,82.66 m -41.97,-0.6 c 0,-34.7 -9.07,-53.11 -37.15,-53.11 -10.21,0 -17.86,2.43 -23.25,6.95 l 57.85,73.01 c 1.7,-7.24 2.55,-16.29 2.55,-26.85 m -14.75,47.06 -57.29,-73.02 c -1.69,7.26 -2.54,16 -2.54,25.96 0,35 9.07,53.4 37.43,53.4 9.65,0 17.01,-2.42 22.4,-6.34 m 220.03,-47.67 c 0,53.71 -29.77,82.67 -76.84,82.67 -4.84,0 -14.18,0 -26.09,-1.82 v 67.28 h -40.27 V 1390.6 c 17.3,-4.23 44.8,-6.05 58.12,-6.05 47.93,0 85.08,27.16 85.08,81.16 m -41.11,-0.31 c 0,-22.61 -8.23,-49.17 -36.3,-50.06 -8.79,-0.31 -16.73,0.6 -25.52,1.81 v 99.84 c 0,0 11.34,1.22 22.4,1.22 29.2,0 39.42,-22.94 39.42,-52.81 m 101.79,80.56 h -40.27 v -158.38 h 40.27 z m 0,67.88 h -40.27 v -39.52 h 40.27 z M 2689,1387.58 v 111.32 c 0,36.5 -24.37,49.48 -45.64,49.48 -19.57,0 -40.27,-8.45 -57,-16.59 v 14.17 h -36.3 v -158.38 h 40.27 v 117.35 c 4.24,2.11 22.97,9.05 37.15,9.05 20.41,0 21.27,-15.08 21.27,-23.23 v -103.17 z m 168.05,134.25 v 26.55 l -62.37,-2.42 c -3.98,0.91 -8.8,2.42 -21.27,2.42 -32.63,0 -62.96,-16.9 -62.96,-52.8 0,-32.88 19.57,-44.04 23.82,-46.15 -5.95,-6.04 -21.83,-16.3 -21.83,-35.91 0,-56.71 100.67,-16.9 100.67,-46.16 0,-13.57 -20.71,-19 -42.82,-19 -21.56,0 -51.62,7.24 -51.62,7.24 v -28.06 c 5.96,-1.5 20.99,-6.34 57.85,-6.34 41.68,0 77.7,13.89 77.7,52.49 0,38.02 -35.45,40.14 -65.23,40.14 h -11.06 c -16.15,0 -28.63,0.6 -28.63,9.05 0,7.53 6.8,13.87 10.78,16.58 0,0 3.96,-1.5 12.75,-1.5 51.61,0 64.94,31.38 64.94,52.19 0,21.11 -8.5,30.16 -11.91,33.49 9.94,0 21.56,-1.51 31.19,-1.81 m -82.24,-56.43 c -15.59,0 -24.09,6.35 -24.09,28.07 0,21.42 8.5,27.75 24.09,27.75 15.89,0 24.39,-6.33 24.39,-28.05 0,-21.42 -8.5,-27.77 -24.39,-27.77" /><path
             id="path28"
             style="fill:#231f20;fill-opacity:1;fill-rule:nonzero;stroke:none"
             d="m 623.77,617.039 c 0,364.816 -233.024,378.891 -369.379,378.891 L 0,995.93 V 238.172 h 252.359 c 136.352,0 371.411,12.976 371.411,378.867 m -156.708,0 C 467.062,336.672 317.48,352.91 241.156,352.91 h -94.629 v 529.36 h 94.629 c 76.324,0 225.906,14.07 225.906,-265.231 M 1142.42,240.32 v 388.641 c 0,175.371 -141.44,190.508 -268.631,189.437 -56.992,0 -143.48,-9.75 -188.254,-20.578 V 690.66 c 36.633,8.66 108.875,20.559 180.106,20.559 131.269,0 132.289,-40.047 132.289,-128.821 h -35.621 c -144.493,0 -312.391,-6.488 -312.391,-172.109 0,-158.051 117.02,-181.859 246.25,-184.039 h 34.598 c 67.164,0 133.304,4.34 211.654,14.07 m -144.49,90.95 c -28.492,-4.329 -52.918,-6.5 -83.442,-6.5 -60.039,0 -112.949,4.32 -112.949,80.101 0,75.777 52.91,80.098 112.949,80.098 15.262,0 65.121,0 83.442,-1.071 z m 734.87,388.609 v 95.269 l -223.86,-8.66 c -14.25,3.25 -31.55,8.66 -76.32,8.66 -117.02,0 -225.9,-60.628 -225.9,-189.437 0,-117.992 70.21,-158.051 85.47,-165.633 -21.36,-21.648 -78.35,-58.457 -78.35,-128.808 0,-203.52 361.24,-60.629 361.24,-165.629 0,-48.711 -74.28,-68.2113 -153.65,-68.2113 -77.34,0 -185.2,25.9923 -185.2,25.9923 V 22.75 C 1257.6,17.3281 1311.53,0 1443.81,0 c 149.58,0 278.82,49.8086 278.82,188.371 0,136.399 -127.2,143.981 -234.05,143.981 h -39.68 c -58,0 -102.77,2.148 -102.77,32.468 0,27.071 24.42,49.801 38.66,59.539 0,0 14.25,-5.41 45.79,-5.41 185.2,0 233.03,112.582 233.03,187.262 0,75.777 -30.53,108.258 -42.74,120.168 35.61,0 77.33,-5.41 111.93,-6.5 m -295.09,-202.43 c -55.97,0 -86.5,22.742 -86.5,100.68 0,76.851 30.53,99.59 86.5,99.59 56.98,0 87.51,-22.739 87.51,-100.68 0,-76.848 -30.53,-99.59 -87.51,-99.59 m 832.25,1.09 c 0,192.68 -106.84,296.609 -275.76,296.609 -17.3,0 -50.88,0 -93.61,-6.5 v 241.412 h -144.5 V 248.988 c 62.07,-15.148 160.78,-21.648 208.6,-21.648 171.97,0 305.27,97.43 305.27,291.199 m -147.54,-1.09 c 0,-81.179 -29.51,-176.437 -130.25,-179.687 -31.55,-1.09 -60.04,2.16 -91.58,6.5 V 702.57 c 0,0 40.7,4.328 80.38,4.328 104.81,0 141.45,-82.269 141.45,-189.449 M 2475.7,1050.06 H 2331.22 V 238.172 h 144.48 z m 543.79,-809.74 v 388.641 c 0,175.371 -141.45,190.508 -268.64,189.437 -56.99,0 -143.49,-9.75 -188.25,-20.578 V 690.66 c 36.63,8.66 108.88,20.559 180.11,20.559 131.25,0 132.28,-40.047 132.28,-128.821 h -35.61 c -144.5,0 -312.41,-6.488 -312.41,-172.109 0,-158.051 117.03,-181.859 246.25,-184.039 h 34.61 c 67.16,0 133.3,4.34 211.66,14.07 m -144.5,90.95 c -28.49,-4.329 -52.91,-6.5 -83.45,-6.5 -60.04,0 -112.95,4.32 -112.95,80.101 0,75.777 52.91,80.098 112.95,80.098 15.27,0 65.14,0 83.45,-1.071 z m 716.46,-79.032 v 798.902 h -144.5 V 810.809 c -38.67,4.339 -72.25,5.41 -90.56,5.41 -172.99,0 -280.85,-116.899 -280.85,-297.68 0,-193.769 135.34,-289.039 306.3,-289.039 74.27,0 173.99,14.078 209.61,22.738 m -144.5,93.094 c -31.54,-4.32 -60.04,-6.492 -91.58,-5.41 -102.77,3.25 -132.28,98.508 -132.28,178.617 0,107.172 36.63,188.359 143.47,188.359 39.69,0 80.39,-4.328 80.39,-4.328 z m 510,-120.152 c 99.72,0 189.27,22.718 189.27,22.718 v 97.434 c -45.79,-9.73 -91.58,-19.48 -153.65,-19.48 -89.55,0 -178.08,25.976 -187.24,153.707 h 382.61 c 4.07,227.339 -63.1,338.839 -262.53,338.839 -183.17,0 -272.71,-116.91 -272.71,-302.019 0,-217.59 136.34,-291.199 304.25,-291.199 m 74.28,349.648 h -225.9 c 0,76.863 30.53,145.051 112.95,145.051 95.65,0 112.95,-72.52 112.95,-145.051 M 4597.6,696.07 v 110.418 h -162.81 v 199.182 c -23.4,-8.666 -139.41,-49.787 -139.41,-49.787 V 806.488 H 4187.52 V 696.07 h 107.86 V 391.891 c 0,-153.719 82.43,-153.719 175.03,-153.719 h 116 v 109.316 h -97.69 c -27.47,0 -53.93,9.762 -53.93,54.133 V 696.07 h 162.81" /></g></g></g></g></svg>